<?xml version="1.0" encoding="utf-8"?>
<svg viewBox="0 0 250 100" xmlns="http://www.w3.org/2000/svg" xmlns:bx="https://boxy-svg.com">
  <defs>
    <filter id="drop-shadow-filter-0" x="-500%" y="-500%" width="1000%" height="1000%" bx:preset="drop-shadow 1 1 6 1 0.43 rgba(0,0,0,0.3)">
      <feGaussianBlur in="SourceAlpha" stdDeviation="1"/>
      <feOffset dx="1" dy="6"/>
      <feComponentTransfer result="offsetblur">
        <feFuncA id="spread-ctrl" type="linear" slope="0.86"/>
      </feComponentTransfer>
      <feFlood flood-color="rgba(0,0,0,0.3)"/>
      <feComposite in2="offsetblur" operator="in"/>
      <feMerge>
        <feMergeNode/>
        <feMergeNode in="SourceGraphic"/>
      </feMerge>
    </filter>
  </defs>
  <path d="M 33.378 75.324 L 17.686 76.475 L 1.995 77.625 C 6.52 76.052 8.556 74.228 9.966 72.996 C 11.375 71.763 12.156 71.121 14.171 71.914 L 18.55 71.47 L 22.929 71.026 L 25.667 53.134 L 28.405 35.241 L 25.318 34.428 L 22.23 33.614 C 21.483 33.669 19.447 32.025 17.655 30.358 C 15.864 28.69 14.315 26.999 14.545 26.962 L 21.619 28.614 L 28.694 30.266 L 34.375 30.082 L 40.057 29.898 C 40.452 29.958 41.205 29.677 42.146 29.315 C 43.087 28.952 44.216 28.508 45.366 28.244 C 46.689 27.94 48.076 27.781 49.159 27.694 C 50.239 27.609 51.015 27.597 51.112 27.585 C 51.238 27.569 50.903 27.731 50.422 28.007 C 49.943 28.284 49.317 28.675 48.865 29.117 C 48.289 29.681 47.929 30.459 47.865 31.112 C 47.801 31.765 48.035 32.292 48.645 32.354 C 48.943 32.385 50.002 32.542 50.917 32.72 C 51.833 32.897 52.605 33.098 52.332 33.215 C 52.125 33.303 51.604 33.641 51.207 34.024 C 50.81 34.407 50.537 34.836 50.821 35.107 C 51.406 35.664 51.918 36.373 52.355 37.197 C 52.793 38.019 53.156 38.958 53.444 39.974 C 53.902 41.615 54.161 43.383 54.226 45.279 C 54.29 47.175 54.157 49.198 53.828 51.352 L 53.753 51.842 L 53.677 52.334 C 53.355 54.434 52.877 56.437 52.245 58.344 C 51.611 60.25 50.824 62.06 49.88 63.771 C 48.93 65.478 47.865 67.016 46.684 68.386 C 45.504 69.755 44.208 70.957 42.796 71.987 C 41.384 73.019 39.893 73.813 38.322 74.369 C 36.753 74.926 35.105 75.243 33.378 75.324 Z M 33.683 34.996 L 30.945 52.889 L 28.207 70.783 C 28.207 70.783 28.487 70.868 28.833 70.98 C 29.179 71.092 29.592 71.234 29.861 71.346 C 30.243 71.507 30.872 71.065 31.406 70.585 C 31.941 70.105 32.379 69.584 32.379 69.584 C 31.757 70.915 32.098 71.403 32.725 71.48 C 33.351 71.555 34.264 71.218 34.781 70.893 C 35.098 70.696 35.427 70.281 35.732 69.826 C 36.038 69.372 36.319 68.88 36.538 68.531 C 36.79 68.13 37.225 67.105 37.582 66.257 C 37.939 65.409 38.219 64.738 38.161 65.041 C 38.016 65.804 38.503 66.813 39.156 67.527 C 39.809 68.243 40.627 68.664 41.145 68.25 C 41.676 67.826 42.18 67.251 42.6 66.589 C 43.019 65.926 43.357 65.177 43.555 64.403 C 43.736 63.702 43.522 62.038 43.331 60.714 C 43.14 59.389 42.971 58.403 43.242 59.057 C 43.702 60.171 44.171 60.7 44.647 60.959 C 45.121 61.218 45.6 61.208 46.078 61.24 C 46.376 61.261 47.004 61.18 47.543 60.778 C 48.081 60.378 48.531 59.656 48.471 58.391 C 48.378 56.378 48.053 55.394 47.46 54.913 C 46.866 54.433 46.004 54.457 44.835 54.457 C 44.974 54.557 45.946 53.572 46.947 52.37 C 47.948 51.17 48.978 49.751 49.238 48.982 C 49.832 47.221 49.691 43.908 49.204 41.464 C 48.715 39.02 47.878 37.446 47.081 39.162 C 46.637 40.119 45.708 40.963 45.071 41.416 C 44.435 41.869 44.091 41.93 44.818 41.318 C 45.408 40.823 45.833 39.954 45.962 39.07 C 46.091 38.185 45.923 37.285 45.327 36.723 C 44.56 36.003 43.677 35.478 42.674 35.146 C 41.673 34.816 40.554 34.679 39.316 34.736 L 36.5 34.866 Z M 37.104 54.916 C 37.104 54.545 32.355 54.335 27.604 54.372 C 22.854 54.411 18.103 54.697 18.103 55.321 C 18.576 55.294 18.257 53.044 17.42 50.377 C 16.583 47.708 15.23 44.623 13.635 42.92 C 14.47 43.079 19.174 45.101 23.725 46.977 C 28.275 48.852 32.674 50.58 32.894 50.146 L 35 52.531 Z M 67.13 74.418 C 65.79 74.479 64.563 74.36 63.449 74.056 C 62.337 73.752 61.337 73.266 60.451 72.598 C 59.574 71.928 58.829 71.117 58.215 70.162 C 57.6 69.209 57.118 68.114 56.767 66.877 C 56.419 65.632 56.221 64.28 56.174 62.825 C 56.127 61.369 56.231 59.808 56.486 58.143 L 56.592 57.457 L 56.695 56.771 C 56.941 55.167 57.315 53.642 57.82 52.194 C 58.324 50.748 58.958 49.379 59.72 48.089 C 60.483 46.8 61.318 45.64 62.226 44.608 C 63.134 43.577 64.115 42.674 65.17 41.9 C 66.224 41.118 67.373 40.65 68.531 40.307 C 69.688 39.963 70.855 39.743 71.942 39.46 C 72.709 39.261 74.067 38.899 75.327 38.558 C 76.586 38.219 77.748 37.901 78.121 37.789 C 78.257 37.748 77.898 37.975 77.474 38.284 C 77.05 38.595 76.562 38.987 76.439 39.278 C 76.343 39.508 76.368 39.785 76.499 40.04 C 76.628 40.295 76.865 40.529 77.193 40.678 C 77.399 40.771 77.496 40.416 77.556 40.054 C 77.618 39.691 77.644 39.321 77.709 39.385 C 77.967 39.636 78.226 40.406 78.531 41.16 C 78.837 41.911 79.188 42.644 79.63 42.821 C 79.872 42.918 80.142 42.576 80.358 42.265 C 80.573 41.952 80.737 41.67 80.765 41.884 C 80.796 42.114 80.772 42.667 80.744 43.249 C 80.717 43.831 80.686 44.441 80.706 44.787 C 80.718 44.999 80.656 45.246 80.649 45.517 C 80.643 45.788 80.695 46.083 80.935 46.397 C 81.2 46.741 81.653 47.096 82.013 47.365 C 82.373 47.635 82.64 47.818 82.534 47.816 C 81.464 47.789 81.266 48.56 81.276 49.719 C 81.287 50.879 81.507 52.428 81.273 53.958 L 80.978 55.875 L 80.686 57.791 L 80.109 58.125 L 79.53 58.46 C 79.518 57.817 79.131 57.355 78.583 57.239 C 78.036 57.122 77.328 57.351 76.671 58.092 L 76.08 58.925 L 75.488 59.758 L 74.882 58.789 L 74.276 57.82 C 74.276 57.82 74.093 57.657 73.854 57.49 C 73.614 57.324 73.317 57.155 73.09 57.142 C 72.913 57.134 72.584 57.366 72.3 57.599 C 72.014 57.833 71.774 58.069 71.774 58.069 L 71.176 58.764 L 70.581 59.458 C 70.656 59.409 70.352 59.012 69.998 58.639 C 69.644 58.268 69.24 57.923 69.115 57.987 C 69.115 57.987 68.954 57.79 68.742 57.608 C 68.53 57.427 68.266 57.26 68.062 57.318 C 67.871 57.372 67.671 57.608 67.52 57.832 C 67.369 58.054 67.266 58.264 67.266 58.264 C 67.196 57.672 66.539 57.691 65.919 57.883 C 65.299 58.072 64.715 58.434 64.789 58.528 L 63.316 58.596 L 61.845 58.665 L 61.793 58.747 L 61.741 58.829 C 61.595 59.907 61.53 60.922 61.548 61.874 C 61.564 62.825 61.663 63.711 61.841 64.533 C 61.932 64.946 61.997 65.704 62.116 66.396 C 62.233 67.087 62.406 67.71 62.711 67.855 C 63.014 67.998 64.291 66.722 65.413 65.554 C 66.533 64.385 67.498 63.326 67.173 63.899 C 67.024 64.163 66.318 65.07 65.696 65.999 C 65.076 66.93 64.541 67.884 64.733 68.248 C 64.983 68.718 65.539 69.067 66.144 69.294 C 66.752 69.521 67.409 69.623 67.867 69.602 C 68.765 69.56 69.616 69.447 70.424 69.263 C 71.232 69.079 71.996 68.823 72.714 68.495 C 73.434 68.165 74.118 67.785 74.766 67.35 C 75.415 66.916 76.026 66.429 76.602 65.889 L 77.327 67.838 L 78.052 69.788 C 77.446 70.389 76.763 70.953 76.001 71.475 C 75.239 71.999 74.399 72.481 73.479 72.924 C 72.56 73.365 71.571 73.711 70.513 73.96 C 69.455 74.21 68.328 74.362 67.13 74.418 Z M 62.718 53.707 L 62.725 53.787 L 62.734 53.865 L 69.437 53.554 L 76.141 53.243 L 76.203 52.832 L 76.265 52.422 C 76.389 51.615 76.445 50.851 76.432 50.13 C 76.418 49.41 76.337 48.732 76.188 48.096 C 76.036 47.469 75.817 46.913 75.526 46.427 C 75.237 45.942 74.878 45.527 74.448 45.185 C 74.015 44.835 73.507 44.581 72.925 44.424 C 72.341 44.266 71.683 44.205 70.95 44.239 C 70.36 44.266 69.784 44.392 69.216 44.619 C 68.649 44.845 68.093 45.17 67.547 45.596 C 67.001 46.021 66.487 46.515 66.005 47.079 C 65.523 47.641 65.071 48.272 64.652 48.971 C 64.24 49.669 63.873 50.413 63.55 51.203 C 63.228 51.992 62.949 52.827 62.718 53.707 Z M 72.169 25.192 L 73.984 29.323 L 75.798 33.454 L 75.68 33.46 L 75.562 33.464 L 73.707 33.55 L 71.851 33.636 C 71.851 33.636 72.041 33.234 72.187 32.686 C 72.332 32.138 72.433 31.443 72.253 30.86 C 72.099 30.364 71.529 30.077 71.046 29.81 C 70.561 29.542 70.164 29.293 70.354 28.873 C 70.548 28.447 69.852 28.173 69.107 28.004 C 68.363 27.835 67.569 27.774 67.569 27.774 C 67.569 27.774 67.84 27.524 68.095 27.197 C 68.349 26.871 68.586 26.466 68.515 26.157 C 68.362 25.472 67.51 24.932 66.699 24.564 C 65.888 24.195 65.115 23.997 65.115 23.997 L 68.643 24.595 Z M 96.62 73.052 C 95.28 73.114 94.052 72.994 92.94 72.691 C 91.826 72.386 90.828 71.9 89.942 71.231 C 89.065 70.561 88.318 69.75 87.703 68.797 C 87.09 67.844 86.608 66.749 86.258 65.51 C 85.91 64.264 85.712 62.915 85.665 61.458 C 85.617 60.002 85.723 58.442 85.979 56.776 L 86.082 56.091 L 86.187 55.406 C 86.432 53.8 86.807 52.276 87.311 50.828 C 87.816 49.382 88.449 48.013 89.211 46.722 C 89.973 45.433 90.367 44.849 90.845 44.309 C 91.323 43.768 91.881 43.271 92.974 42.152 C 93.477 41.636 94.166 41.127 94.858 40.69 C 95.549 40.254 96.242 39.892 96.756 39.674 C 96.97 39.581 97.519 39.486 98.015 39.414 C 98.51 39.343 98.95 39.294 98.95 39.294 C 99.166 39.409 99.279 39.1 99.306 38.728 C 99.335 38.357 99.28 37.923 99.158 37.784 C 99.018 37.627 99.653 37.969 100.394 38.334 C 101.136 38.696 101.986 39.083 102.279 39.012 C 102.532 38.953 102.75 38.827 102.89 38.613 C 103.03 38.4 103.094 38.101 103.039 37.693 C 103.007 37.464 103.365 37.842 103.778 38.295 C 104.191 38.746 104.659 39.274 104.848 39.345 C 105.15 39.459 105.408 39.396 105.642 39.26 C 105.877 39.124 106.088 38.916 106.297 38.738 C 106.514 38.551 106.556 38.106 106.541 37.707 C 106.527 37.308 106.459 36.955 106.459 36.955 C 106.459 36.955 106.124 36.349 105.84 35.791 C 105.554 35.232 105.316 34.725 105.512 34.919 C 106.256 35.659 107.495 37.546 108.601 39.521 C 109.707 41.497 110.68 43.561 110.893 44.657 C 111.105 45.755 111.189 46.974 111.162 48.3 C 111.134 49.627 110.996 51.062 110.762 52.591 C 110.762 52.591 110.849 53.692 110.806 54.712 C 110.762 55.733 110.591 56.673 110.075 56.353 C 109.469 55.978 109.102 56.346 108.701 56.72 C 108.3 57.095 107.866 57.479 107.124 57.136 C 106.382 56.796 105.757 56.958 105.317 57.205 C 104.877 57.453 104.622 57.785 104.622 57.785 L 103.549 57.621 L 102.476 57.455 L 101.827 58.88 L 101.178 60.304 C 101.178 60.304 101.103 59.822 100.95 59.263 C 100.799 58.705 100.568 58.07 100.255 57.763 C 100.191 57.701 99.95 57.643 99.659 57.656 C 99.367 57.668 99.026 57.754 98.769 57.979 C 98.559 58.164 98.493 58.578 98.458 58.896 C 98.423 59.214 98.42 59.436 98.34 59.234 C 98.075 58.57 98.191 57.896 98.375 57.389 C 98.558 56.88 98.809 56.538 98.809 56.538 C 98.809 56.538 98.176 56.74 97.467 56.998 C 96.757 57.256 95.97 57.572 95.659 57.799 C 95.214 58.122 94.686 58.773 94.268 59.343 C 93.851 59.913 93.546 60.403 93.546 60.403 L 93.651 58.795 L 93.757 57.186 L 92.545 57.242 L 91.334 57.299 L 91.281 57.38 L 91.23 57.462 C 91.084 58.541 91.021 59.556 91.037 60.507 C 91.054 61.459 91.152 62.345 91.332 63.167 C 91.51 63.99 91.773 64.721 92.117 65.358 C 92.462 65.996 92.889 66.54 93.399 66.992 C 93.906 67.445 94.491 67.775 95.15 67.982 C 95.809 68.191 96.546 68.275 97.357 68.237 C 97.908 68.211 98.406 68.176 98.878 68.088 C 99.349 68.002 99.797 67.864 100.25 67.632 C 100.532 67.488 100.996 66.943 101.381 66.513 C 101.764 66.085 102.066 65.772 102.026 66.091 C 101.925 66.868 102.514 67.062 103.218 67 C 103.922 66.936 104.741 66.615 105.099 66.364 C 105.379 66.168 105.501 65.826 105.616 65.475 C 105.73 65.123 105.837 64.761 106.091 64.524 C 106.091 64.524 106.548 64.593 107.122 64.579 C 107.695 64.566 108.384 64.472 108.851 64.146 C 109.212 63.892 109.766 63.117 110.228 62.406 C 110.69 61.696 111.061 61.048 111.061 61.048 C 111.061 61.048 111.096 61.853 111.011 62.78 C 110.926 63.707 110.719 64.753 110.238 65.234 C 109.755 65.716 109.081 66.512 108.528 67.189 C 107.975 67.865 107.542 68.421 107.542 68.421 C 106.936 69.024 106.253 69.586 105.49 70.11 C 104.727 70.632 103.887 71.115 102.968 71.558 C 102.051 72 101.063 72.345 100.005 72.594 C 98.946 72.844 97.817 72.997 96.62 73.052 Z M 92.21 52.34 L 92.218 52.42 L 92.226 52.498 L 98.927 52.188 L 105.629 51.878 L 105.691 51.466 L 105.755 51.055 C 105.879 50.249 105.934 49.485 105.922 48.765 C 105.909 48.045 105.826 47.367 105.677 46.731 C 105.528 46.104 105.307 45.547 105.017 45.061 C 104.727 44.576 104.368 44.161 103.941 43.819 C 103.506 43.47 102.997 43.216 102.415 43.058 C 101.832 42.902 101.174 42.84 100.441 42.874 C 99.851 42.901 99.273 43.027 98.705 43.253 C 98.138 43.479 97.582 43.804 97.037 44.23 C 96.491 44.656 95.977 45.15 95.494 45.712 C 95.012 46.275 94.562 46.905 94.143 47.605 C 93.731 48.304 93.365 49.048 93.041 49.837 C 92.719 50.627 92.442 51.461 92.21 52.34 Z M 98.145 32.147 L 95.996 32.247 L 93.846 32.346 L 93.909 31.935 L 93.972 31.524 L 97.836 27.675 L 101.699 23.824 L 103.298 23.751 L 104.897 23.675 L 107.656 27.242 L 110.414 30.807 L 110.354 31.196 L 110.293 31.584 L 108.136 31.684 L 105.977 31.784 L 104.359 29.559 L 102.74 27.334 L 100.444 29.741 Z M 123.134 84.061 L 115.002 84.166 L 106.872 84.27 C 106.872 84.27 107.376 84.123 107.934 83.9 C 108.494 83.675 109.107 83.374 109.33 83.063 C 109.508 82.814 109.819 82.503 110.083 82.253 C 110.349 82.004 110.57 81.816 110.57 81.816 C 110.57 81.816 110.498 81.484 110.402 81.09 C 110.306 80.696 110.188 80.24 110.092 79.993 C 109.85 79.366 109.3 78.534 108.81 77.859 C 108.322 77.184 107.893 76.667 107.893 76.667 L 109.658 77.734 L 111.424 78.801 L 112.693 79.241 L 113.961 79.682 L 116.798 61.149 L 119.634 42.616 L 118.635 41.004 L 117.637 39.389 L 116.376 36.475 L 115.114 33.56 L 117.389 35.213 L 119.662 36.866 L 122.109 37.289 L 124.555 37.71 L 124.663 39.683 L 124.768 41.655 C 125.371 40.866 126.01 40.163 126.689 39.549 C 127.368 38.935 128.085 38.411 128.839 37.975 C 129.596 37.532 130.39 37.191 131.224 36.948 C 132.056 36.706 132.928 36.564 133.838 36.522 C 135.036 36.467 136.116 36.603 137.084 36.932 C 138.049 37.26 138.901 37.782 139.635 38.496 C 140.369 39.217 140.981 40.091 141.47 41.118 C 141.959 42.146 142.327 43.324 142.57 44.659 C 142.807 45.992 142.916 47.448 142.895 49.03 C 142.875 50.61 142.725 52.312 142.445 54.138 L 142.396 54.458 L 142.347 54.778 C 142.099 56.405 141.753 57.935 141.309 59.368 C 140.865 60.801 140.326 62.138 139.687 63.375 C 139.05 64.613 138.335 65.72 137.542 66.698 C 136.749 67.675 135.879 68.521 134.93 69.239 C 133.988 69.961 132.984 70.517 131.921 70.906 C 130.858 71.296 129.734 71.518 128.552 71.573 C 127.661 71.614 126.836 71.565 126.078 71.427 C 125.321 71.289 124.63 71.059 124.002 70.741 C 123.382 70.421 122.825 70.017 122.332 69.527 C 121.839 69.035 121.41 68.458 121.043 67.795 L 120.152 73.615 L 119.26 79.435 L 122.625 80.448 L 125.988 81.462 L 124.562 82.761 Z M 127.659 66.833 C 128.479 66.796 129.159 66.863 129.74 66.784 C 130.321 66.706 130.803 66.476 131.227 65.848 C 131.449 65.519 131.786 63.52 132.14 61.51 C 132.492 59.5 132.859 57.48 133.137 57.106 C 133.266 56.931 133.198 57.652 133.135 58.626 C 133.072 59.6 133.014 60.826 133.163 61.654 C 133.283 62.315 133.607 62.598 133.938 62.7 C 134.269 62.804 134.609 62.727 134.76 62.672 C 135.33 62.465 135.784 61.928 136.141 61.254 C 136.498 60.581 136.759 59.772 136.945 59.019 C 136.998 58.802 137.088 58.456 137.185 58.048 C 137.281 57.638 137.383 57.164 137.46 56.688 C 137.541 56.192 137.522 55.623 137.484 55.182 C 137.445 54.737 137.387 54.419 137.387 54.419 L 136.61 53.905 L 135.832 53.389 L 134.627 51.742 L 133.421 50.093 C 133.791 50.173 134.535 50.594 135.287 50.945 C 136.037 51.298 136.796 51.581 137.197 51.386 C 137.624 51.177 137.854 50.261 137.96 49.271 C 138.066 48.282 138.047 47.219 137.977 46.719 C 137.903 46.173 137.674 45.601 137.39 45.109 C 137.108 44.618 136.769 44.208 136.472 43.983 C 136.187 43.768 136.041 43.55 135.617 43.699 C 135.193 43.848 134.492 44.363 133.098 45.613 C 132.846 45.843 133.127 45.175 133.449 44.343 C 133.772 43.512 134.136 42.517 134.049 42.091 C 133.953 41.623 133.529 41.488 133.018 41.476 C 132.508 41.462 131.909 41.572 131.463 41.594 C 130.711 41.628 129.997 41.759 129.323 41.987 C 128.646 42.214 128.011 42.539 127.415 42.959 C 126.818 43.379 126.263 43.87 125.748 44.43 C 125.233 44.991 124.759 45.621 124.329 46.32 L 123.07 54.547 L 121.812 62.774 C 122.031 63.452 122.317 64.05 122.666 64.566 C 123.015 65.082 123.429 65.519 123.908 65.874 C 124.379 66.23 124.927 66.487 125.552 66.647 C 126.177 66.807 126.879 66.869 127.659 66.833 Z M 158.216 70.199 C 157.026 70.254 155.874 70.205 154.76 70.053 C 153.648 69.9 152.572 69.645 151.535 69.285 C 150.49 68.934 148.84 67.418 147.451 65.991 C 146.061 64.564 144.933 63.225 144.933 63.225 C 144.933 63.225 145.468 63.388 146.03 63.453 C 146.592 63.519 147.177 63.486 147.279 63.095 C 147.406 62.601 147.039 62.204 146.659 61.892 C 146.279 61.581 145.884 61.354 145.957 61.202 C 146.23 60.627 146.23 60.097 146.161 59.712 C 146.093 59.325 145.956 59.083 145.956 59.083 C 145.956 59.083 145.701 58.649 145.292 58.197 C 144.884 57.745 144.319 57.274 143.703 57.199 C 142.624 57.069 143.499 57.053 144.644 57.072 C 145.79 57.089 147.204 57.139 147.204 57.139 C 147.204 57.139 146.809 56.586 146.268 55.983 C 145.726 55.38 145.04 54.728 144.456 54.529 C 143.412 54.175 144.255 54.257 145.357 54.427 C 146.46 54.597 147.823 54.855 147.823 54.855 C 147.823 54.855 147.757 54.196 147.603 53.409 C 147.449 52.622 147.21 51.705 146.862 51.193 C 146.243 50.28 147.843 51.363 149.343 52.721 C 150.843 54.08 152.242 55.714 151.225 55.905 C 149.278 56.27 149.268 58.055 149.745 59.75 C 150.22 61.442 151.185 63.045 151.185 63.045 C 151.696 63.438 152.241 63.782 152.821 64.076 C 153.399 64.37 154.01 64.615 154.655 64.813 C 155.3 65.01 155.983 65.148 156.701 65.227 C 157.419 65.307 158.175 65.329 158.968 65.293 C 159.857 65.252 160.693 65.134 161.473 64.938 C 162.253 64.744 162.978 64.472 163.648 64.124 C 164.316 63.784 164.924 63.383 165.469 62.923 C 166.013 62.462 166.495 61.942 166.916 61.365 C 167.328 60.788 167.667 60.167 167.931 59.506 C 168.194 58.844 168.384 58.14 168.499 57.395 C 168.604 56.696 168.635 56.041 168.589 55.431 C 168.542 54.822 168.419 54.257 168.22 53.737 C 168.012 53.226 167.707 52.749 167.303 52.306 C 166.899 51.864 166.399 51.456 165.801 51.083 C 165.206 50.712 164.489 50.372 163.645 50.064 C 162.803 49.756 161.835 49.48 160.742 49.235 C 159.457 48.931 158.286 48.562 157.228 48.127 C 156.171 47.692 155.228 47.192 154.399 46.626 C 153.562 46.061 152.851 45.427 152.26 44.72 C 151.67 44.015 151.202 43.24 150.857 42.395 C 150.512 41.542 150.297 40.623 150.21 39.637 C 150.125 38.652 150.167 37.601 150.339 36.482 C 150.52 35.296 150.828 34.165 151.262 33.091 C 151.696 32.017 152.255 31 152.942 30.038 C 153.623 29.078 154.395 28.211 155.259 27.438 C 156.125 26.666 157.082 25.987 158.134 25.403 C 159.184 24.819 160.296 24.366 161.466 24.044 C 162.636 23.72 163.865 23.529 165.153 23.469 C 165.504 23.453 166.007 23.502 166.6 23.5 C 167.193 23.498 167.876 23.447 168.589 23.231 C 169.001 23.105 169.736 22.749 170.334 22.453 C 170.931 22.157 171.39 21.923 171.249 22.04 C 170.814 22.397 170.362 22.787 170.056 23.124 C 169.75 23.46 169.589 23.744 169.736 23.888 C 169.998 24.143 170.894 23.929 171.651 23.723 C 172.407 23.517 173.022 23.319 172.725 23.606 C 172.283 24.029 172.262 24.342 172.407 24.589 C 172.551 24.836 172.862 25.016 173.084 25.174 C 173.718 25.624 174.551 25.983 175.314 26.452 C 176.078 26.923 176.77 27.506 177.122 28.406 C 177.122 28.406 176.766 28.147 176.31 27.885 C 175.853 27.624 175.294 27.36 174.887 27.352 C 174.596 27.345 174.191 27.518 173.858 27.691 C 173.525 27.864 173.264 28.039 173.264 28.039 L 173.694 29.215 L 174.126 30.391 L 174.888 33.228 L 175.652 36.066 L 173.971 36.121 L 172.29 36.176 C 172.29 36.176 172.715 35.994 173.09 35.751 C 173.466 35.511 173.791 35.208 173.594 34.968 C 172.88 34.103 173.049 33.556 173.056 33.508 C 173.064 33.463 172.909 33.915 171.551 35.047 C 171.229 35.313 170.504 35.729 169.943 36.013 C 169.381 36.3 168.982 36.454 169.313 36.2 C 169.719 35.89 170.017 35.406 170.217 34.94 C 170.419 34.475 170.523 34.028 170.541 33.791 C 170.588 33.211 170.194 32.443 169.79 31.821 C 169.386 31.201 168.97 30.724 168.97 30.724 C 168.97 30.724 169.312 31.018 169.723 31.286 C 170.135 31.555 170.617 31.797 170.898 31.692 C 171.181 31.587 171.491 31.247 171.731 30.934 C 171.972 30.62 172.142 30.332 172.142 30.332 C 171.794 29.971 171.223 29.73 170.6 29.523 C 169.977 29.316 169.3 29.145 168.744 28.922 C 168.178 28.706 167.534 28.556 166.811 28.468 C 166.086 28.381 165.282 28.357 164.399 28.397 C 163.646 28.433 162.927 28.541 162.24 28.724 C 161.551 28.907 160.896 29.165 160.275 29.494 C 159.659 29.826 159.096 30.218 158.586 30.667 C 158.074 31.118 157.616 31.628 157.21 32.198 C 156.8 32.762 156.463 33.372 156.2 34.03 C 155.937 34.688 155.747 35.393 155.631 36.146 C 155.531 36.8 155.512 37.409 155.572 37.973 C 155.632 38.538 155.771 39.056 155.992 39.53 C 156.204 40.002 156.516 40.442 156.925 40.85 C 157.334 41.257 157.841 41.632 158.444 41.975 C 159.043 42.31 159.753 42.63 160.577 42.935 C 161.401 43.241 162.336 43.532 163.387 43.809 C 165.356 44.307 167.054 44.957 168.481 45.759 C 169.908 46.561 171.062 47.517 171.945 48.623 C 172.827 49.739 173.422 51 173.733 52.411 C 174.044 53.82 174.068 55.378 173.808 57.08 C 173.622 58.299 173.305 59.453 172.858 60.547 C 172.412 61.64 171.834 62.671 171.128 63.641 C 170.423 64.602 169.615 65.469 168.708 66.24 C 167.8 67.011 166.792 67.687 165.684 68.268 C 164.574 68.847 163.398 69.298 162.154 69.62 C 160.91 69.942 159.596 70.136 158.216 70.199 Z M 161.871 20.087 L 159.731 20.186 L 157.592 20.284 L 157.656 19.873 L 157.718 19.461 L 161.582 15.612 L 165.444 11.762 L 167.045 11.688 L 168.644 11.613 L 171.401 15.18 L 174.158 18.746 L 174.099 19.134 L 174.039 19.522 L 171.882 19.623 L 169.723 19.722 L 168.104 17.496 L 166.484 15.27 L 164.178 17.678 Z M 190.169 68.061 L 183.153 68.387 L 176.136 68.712 L 176.436 66.75 L 176.735 64.788 L 178.983 64.241 L 181.23 63.694 L 181.514 61.836 L 181.798 59.978 L 180.537 57.578 L 179.274 55.179 C 179.274 55.179 179.752 55.761 180.337 56.371 C 180.921 56.981 181.611 57.621 182.032 57.737 C 182.617 57.896 182.743 57.078 182.643 56.045 C 182.545 55.012 182.221 53.765 181.903 53.064 C 181.536 52.251 181.906 51.386 182.369 50.724 C 182.832 50.063 183.387 49.603 183.387 49.603 L 183.635 47.978 L 183.883 46.353 C 183.883 46.353 183.805 45.895 183.662 45.35 C 183.517 44.806 183.307 44.176 183.043 43.829 C 182.518 43.14 181.436 43.665 180.485 44.362 C 179.534 45.058 178.716 45.927 178.716 45.927 C 178.716 45.927 179.542 44.784 180.517 43.595 C 181.492 42.406 182.617 41.17 183.21 40.984 C 183.75 40.815 184.276 39.93 184.669 39.087 C 185.063 38.244 185.321 37.442 185.321 37.442 L 186.261 31.055 L 187.202 24.666 C 187.202 24.666 186.355 24.967 185.404 25.034 C 184.453 25.102 183.398 24.936 182.977 24.004 C 182.705 23.398 182.784 22.079 182.968 21.074 C 183.15 20.069 183.439 19.378 183.585 20.031 C 183.845 21.186 184.901 21.137 185.892 20.799 C 186.883 20.461 187.809 19.834 187.809 19.834 C 187.809 19.834 188.727 18.426 189.571 17.218 C 190.415 16.012 191.185 15.005 190.888 15.811 C 190.355 17.263 190.545 18.332 190.868 19.037 C 191.193 19.743 191.649 20.086 191.649 20.086 C 191.649 20.086 192.97 19.428 194.142 18.886 C 195.315 18.344 196.338 17.916 195.744 18.375 C 194.076 19.659 193.293 20.991 192.927 22 C 192.561 23.008 192.613 23.697 192.613 23.697 L 192.329 25.56 L 192.042 27.423 L 189.285 45.436 L 186.53 63.449 L 188.649 63.793 L 190.769 64.137 L 190.469 66.098 Z M 207.894 67.24 L 201.339 67.544 L 194.781 67.847 L 195.082 65.885 L 195.382 63.923 L 196.885 63.649 L 198.389 63.375 L 198.361 63.308 L 198.333 63.242 L 195.097 57.136 L 191.86 51.032 L 193.609 48.516 L 195.359 45.998 L 196.635 48.355 L 197.909 50.711 L 198.724 52.217 L 199.539 53.722 C 199.539 53.722 199.815 54.225 200.207 54.78 C 200.601 55.338 201.11 55.949 201.578 56.166 C 201.947 56.338 202.551 56.323 203.062 56.265 C 203.574 56.209 203.992 56.109 203.992 56.109 C 203.992 56.109 203.627 56.47 203.254 56.954 C 202.882 57.438 202.502 58.042 202.471 58.527 C 202.422 59.312 202.911 60.368 203.412 61.23 C 203.914 62.09 204.428 62.755 204.428 62.755 L 206.461 63.037 L 208.494 63.316 L 208.194 65.278 Z M 206.303 38.533 L 196.608 48.523 L 186.914 58.514 L 186.304 56.139 L 185.693 53.765 L 193.112 46.17 L 200.529 38.576 L 200.613 38.482 L 200.695 38.386 L 198.837 38.313 L 196.979 38.241 C 196.979 38.241 196.657 38.043 196.259 37.743 C 195.863 37.442 195.391 37.039 195.093 36.628 C 194.794 36.217 194.673 35.13 194.626 34.145 C 194.579 33.159 194.606 32.277 194.606 32.277 C 194.606 32.277 194.821 33.081 195.147 33.945 C 195.472 34.809 195.908 35.731 196.348 35.966 C 196.593 36.095 197.253 36.145 197.853 36.162 C 198.452 36.18 198.992 36.165 198.992 36.165 L 202.319 35.132 L 205.647 34.099 L 204.593 32.903 L 203.539 31.707 L 205.563 32.723 L 207.587 33.739 L 209.174 33.666 L 210.761 33.592 L 210.459 35.567 L 210.158 37.541 L 208.23 38.036 Z M 215.139 80.433 C 214.938 80.443 211.543 80.371 208.114 80.287 C 204.687 80.203 201.229 80.108 200.904 80.069 C 200.586 80.024 196.581 79.811 192.612 79.603 C 188.643 79.394 184.712 79.186 184.543 79.149 C 184.543 79.149 181.054 78.054 176.672 77.004 C 172.291 75.953 167.017 74.945 163.451 75.12 C 160.938 75.243 157.3 76.312 154.289 77.353 C 151.28 78.391 148.898 79.399 148.898 79.399 C 148.898 79.399 151.273 77.715 154.077 75.885 C 156.882 74.056 160.117 72.08 161.835 71.501 C 163.655 70.886 164.246 70.637 164.628 70.748 C 165.008 70.858 165.177 71.325 166.155 72.14 C 167.851 73.557 171.079 73.715 173.884 73.52 C 176.689 73.325 179.069 72.776 179.069 72.776 C 179.128 72.78 181.56 73.912 184.668 74.799 C 187.776 75.687 191.561 76.33 194.322 75.352 C 198.009 74.046 201.654 73.187 204.416 72.653 C 207.179 72.121 209.061 71.913 209.221 71.916 C 209.392 71.921 207.178 73.281 205.788 74.627 C 204.398 75.975 203.833 77.31 207.304 77.27 C 209.181 77.247 211.195 76.949 212.75 76.653 C 214.305 76.359 215.399 76.07 215.433 76.069 C 215.995 76.042 216.59 75.698 217.151 75.23 C 217.714 74.762 218.241 74.171 218.671 73.652 C 219.102 73.133 219.535 72.527 219.97 71.83 C 220.404 71.133 220.842 70.348 221.28 69.474 L 222.179 67.666 L 223.08 65.858 C 223.08 65.858 223.131 64.776 223.028 63.514 C 222.925 62.253 222.666 60.811 222.046 60.093 C 221.454 59.405 220.193 59.029 219.08 58.825 C 217.966 58.621 217.001 58.589 217.001 58.589 C 217.001 58.589 217.486 58.568 218.063 58.471 C 218.639 58.375 219.304 58.201 219.662 57.899 C 220.037 57.583 220.453 57.017 220.73 56.471 C 221.006 55.926 221.144 55.402 220.962 55.172 C 220.521 54.612 219.842 54.433 219.132 54.295 C 218.42 54.155 217.676 54.058 217.1 53.66 C 216.408 53.182 215.545 52.236 214.854 51.41 C 214.164 50.585 213.646 49.879 213.646 49.879 C 213.646 49.879 214.319 50.317 215.177 50.736 C 216.035 51.154 217.075 51.553 217.809 51.477 C 218.194 51.437 218.614 51.309 218.977 51.095 C 219.339 50.882 219.643 50.585 219.795 50.206 C 220.073 49.518 219.842 48.422 219.542 47.497 C 219.244 46.572 218.876 45.821 218.876 45.821 L 218.487 43.966 L 218.098 42.111 L 217.982 40.151 L 217.865 38.19 L 216.271 38.277 L 214.674 38.362 C 215.455 37.757 215.279 37.149 214.714 36.845 C 214.15 36.539 213.196 36.536 212.415 37.141 C 212.684 36.784 213.124 36.477 213.522 36.155 C 213.919 35.831 214.274 35.49 214.367 35.068 C 214.521 34.381 214.322 34.12 214.061 33.787 C 213.801 33.454 213.478 33.047 213.382 32.07 C 213.382 32.07 213.91 32.714 214.807 32.948 C 215.703 33.182 216.969 33.006 218.443 31.362 C 218.443 31.362 218.228 32.003 218.108 32.731 C 217.988 33.46 217.965 34.276 218.353 34.628 C 219.465 35.638 221.614 35.192 223.483 34.493 C 225.352 33.794 226.944 32.842 226.944 32.842 L 226.641 34.816 L 226.338 36.792 L 224.523 37.193 L 222.708 37.593 C 222.391 37.933 223.145 42.103 223.988 46.179 C 224.832 50.256 225.763 54.237 225.8 54.196 L 226.149 56.368 L 226.499 58.537 L 226.578 58.533 L 226.657 58.531 C 226.964 58.677 229.673 53.155 232.204 47.548 C 234.735 41.942 237.087 36.25 236.683 36.058 C 236.782 35.901 236.24 35.917 235.382 35.914 C 234.525 35.913 233.35 35.893 232.178 35.664 C 232.248 35.567 233.125 35.001 233.977 34.433 C 234.829 33.863 235.657 33.294 235.626 33.184 C 235.847 33.125 235.656 32.303 235.403 31.458 C 235.15 30.614 234.834 29.749 234.807 29.605 C 235.117 29.726 236.049 30.203 237.057 30.662 C 238.067 31.122 239.151 31.566 239.761 31.62 C 240.139 31.638 241.897 31.368 243.481 31.149 C 245.065 30.927 246.472 30.755 246.145 30.962 C 245.926 31.228 245.366 32.081 244.833 32.932 C 244.303 33.787 243.8 34.641 243.692 34.909 L 243.813 36.789 L 243.932 38.667 C 243.953 38.624 243.4 38.018 242.829 37.454 C 242.257 36.888 241.667 36.365 241.611 36.483 C 241.567 36.677 241.41 37.197 241.063 38.133 C 240.716 39.067 240.178 40.418 239.369 42.27 C 239.282 42.47 239.345 42.964 239.57 43.459 C 239.795 43.953 240.185 44.448 240.753 44.653 C 241.579 44.952 242.646 44.945 243.509 44.863 C 244.371 44.781 245.025 44.624 245.025 44.624 C 245.025 44.624 244.753 44.778 244.297 45.079 C 243.842 45.379 243.205 45.827 242.477 46.414 C 242.205 46.632 241.822 46.814 241.381 46.941 C 240.941 47.068 240.444 47.143 239.94 47.148 C 238.941 47.158 238.178 47.066 237.515 47.125 C 236.855 47.182 236.296 47.389 235.706 47.999 C 234.915 48.819 234.662 50.351 234.597 51.782 C 234.531 53.215 234.651 54.548 234.603 54.972 C 234.564 55.318 234.521 56.85 234.451 58.373 C 234.381 59.897 234.284 61.413 234.138 61.726 C 234.042 61.933 234.044 61.291 233.961 60.526 C 233.879 59.761 233.713 58.874 233.278 58.588 C 232.999 58.405 232.557 58.415 232.165 58.514 C 231.771 58.614 231.429 58.802 231.348 58.974 C 229.422 63.077 227.902 66.256 226.85 68.396 C 225.8 70.535 225.218 71.635 225.166 71.584 C 224.774 72.411 224.36 73.194 223.924 73.935 C 223.489 74.678 223.034 75.377 222.556 76.033 C 222.08 76.69 221.57 77.28 221.024 77.803 C 220.48 78.328 219.9 78.785 219.289 79.176 C 218.684 79.559 218.037 79.855 217.346 80.065 C 216.655 80.274 215.919 80.397 215.139 80.433 Z M 227.185 26.169 C 227.252 26.088 226.33 25.956 225.314 25.935 C 224.298 25.913 223.191 26.003 222.888 26.368 L 222.949 25.958 L 223.012 25.547 C 223.182 25.747 225.493 24.267 227.572 22.515 C 229.651 20.763 231.498 18.739 230.74 17.847 C 230.776 18.09 231.581 18.081 232.373 17.997 C 233.166 17.911 233.947 17.754 233.938 17.699 C 233.029 18.591 234.305 20.473 235.86 22.083 C 237.415 23.694 239.251 25.03 239.454 24.829 L 239.394 25.218 L 239.336 25.607 C 239.411 25.472 238.37 25.454 237.289 25.504 C 236.209 25.554 235.09 25.673 235.016 25.807 C 235.638 25.507 235.044 24.154 234.2 22.92 C 233.356 21.686 232.265 20.572 231.894 20.751 C 231.458 20.383 230.15 21.63 229.018 23.022 C 227.885 24.413 226.925 25.952 227.185 26.169 Z" style="white-space: pre; mix-blend-mode: multiply; filter: url(#drop-shadow-filter-0); paint-order: stroke; stroke: rgba(248, 0, 0, 0); stroke-width: 0px;"/>
</svg>